<svg width="1200" height="360" viewBox="0 0 1200 360" fill="none" xmlns="http://www.w3.org/2000/svg">
  <defs>
    <linearGradient id="ah_gold" x1="76" y1="42" x2="284" y2="318" gradientUnits="userSpaceOnUse">
      <stop offset="0" stop-color="#FFE27A"/>
      <stop offset="0.52" stop-color="#E0B53E"/>
      <stop offset="1" stop-color="#8E6718"/>
    </linearGradient>
    <linearGradient id="ah_steel" x1="66" y1="54" x2="295" y2="301" gradientUnits="userSpaceOnUse">
      <stop offset="0" stop-color="#191B21"/>
      <stop offset="1" stop-color="#090A0D"/>
    </linearGradient>
    <filter id="shadow" x="0" y="0" width="1200" height="360" filterUnits="userSpaceOnUse" color-interpolation-filters="sRGB">
      <feDropShadow dx="0" dy="10" stdDeviation="10" flood-color="#000000" flood-opacity="0.32"/>
    </filter>
  </defs>

  <g filter="url(#shadow)">
    <rect x="20" y="24" width="1160" height="312" rx="32" fill="#050608" fill-opacity="0.94"/>
    <rect x="22" y="26" width="1156" height="308" rx="30" stroke="#6C5317" stroke-width="2"/>
    <rect x="38" y="42" width="1124" height="76" rx="22" fill="#100C04" fill-opacity="0.84"/>
    <rect x="38" y="42" width="1124" height="76" rx="22" stroke="#B88E22" stroke-opacity="0.34" stroke-width="1.5"/>
  </g>

  <g transform="translate(52 46)">
    <path d="M128 0L226 56V168L128 224L30 168V56L128 0Z" fill="url(#ah_steel)"/>
    <path d="M128 12L216 63V161L128 212L40 161V63L128 12Z" stroke="url(#ah_gold)" stroke-width="8"/>
    <path d="M128 34L188 68V136L128 170L68 136V68L128 34Z" fill="#0C0D10" stroke="#C79B31" stroke-width="5"/>

    <circle cx="128" cy="102" r="16" fill="url(#ah_gold)"/>
    <circle cx="128" cy="102" r="7" fill="#0A0B0E"/>

    <path d="M128 18V46" stroke="#DDB24A" stroke-width="8" stroke-linecap="round"/>
    <path d="M128 158V186" stroke="#DDB24A" stroke-width="8" stroke-linecap="round"/>
    <path d="M44 102H72" stroke="#DDB24A" stroke-width="8" stroke-linecap="round"/>
    <path d="M184 102H212" stroke="#DDB24A" stroke-width="8" stroke-linecap="round"/>
    <path d="M69 44L87 63" stroke="#DDB24A" stroke-width="8" stroke-linecap="round"/>
    <path d="M169 141L187 160" stroke="#DDB24A" stroke-width="8" stroke-linecap="round"/>
    <path d="M69 160L87 141" stroke="#DDB24A" stroke-width="8" stroke-linecap="round"/>
    <path d="M169 63L187 44" stroke="#DDB24A" stroke-width="8" stroke-linecap="round"/>

    <path d="M94 141L118 63H138L162 141H142L136.5 123H118.5L113 141H94ZM123.6 107H131.4L127.7 94.2L123.6 107Z" fill="#FFDB69"/>
    <path d="M92 63H112V94H144V63H164V141H144V110H112V141H92V63Z" fill="#0B0C0F"/>
  </g>

  <g transform="translate(344 0)">
    <text x="0" y="148" font-family="Segoe UI, Friz Quadrata, Arial, sans-serif" font-size="78" font-weight="800" fill="#F7D35D" letter-spacing="1.5">
      Account-HUB
    </text>
    <text x="2" y="212" font-family="Segoe UI, Arial, sans-serif" font-size="28" font-weight="700" fill="#D5C8A4" letter-spacing="5.8">
      MYTHIC+ DASHBOARD FOR RETAIL
    </text>
    <line x1="0" y1="238" x2="786" y2="238" stroke="#B4881F" stroke-width="2" stroke-opacity="0.64"/>
    <text x="0" y="288" font-family="Segoe UI, Arial, sans-serif" font-size="26" font-weight="600" fill="#E8E0CC">
      Vault. Keys. Routes. Alts. One hub.
    </text>
    <text x="0" y="320" font-family="Segoe UI, Arial, sans-serif" font-size="18" font-weight="500" fill="#AFA58A">
      Designed for a compact, premium dark-and-gold WoW utility aesthetic.
    </text>
  </g>
</svg>
